<?xml version="1.0" encoding="UTF-8"?>
<svg id="Layer_2" data-name="Layer 2" xmlns="http://www.w3.org/2000/svg" viewBox="0 0 306.7 279.2">
  <defs>
    <style>
      .cls-1, .cls-2 {
        opacity: .76;
      }

      .cls-1, .cls-3 {
        fill: #54a5d6;
      }

      .cls-1, .cls-3, .cls-4 {
        stroke-width: 0px;
      }

      .cls-5 {
        fill: #8ecaef;
        stroke: #8fc9ee;
        stroke-miterlimit: 10;
        stroke-width: .5px;
      }

      .cls-6 {
        opacity: .32;
      }

      .cls-4 {
        fill: #fff;
      }

#Bubble {
  opacity: 1;
}

#Bubble:hover {
    animation: fade 2s linear infinite;
  }

@keyframes fade {
    0%{opacity: 1;}
    50%{opacity: 0;}
    100%{opacity: 1;}
}





    </style>

<script>
let thePath = document.querySelector("Bubble");

function logMyId() {
  console.log("Bubble");
}

document.addEventListener('click', logMyId);
</script>

  </defs>
  <g id="Bubble">
    <g id="main-bubble">
      <circle class="cls-5" cx="249.68" cy="57.02" r="56.77"/>
      <circle class="cls-5" cx="104.5" cy="174.7" r="104.25"/>
    </g>
    <g id="shadow-bubble" class="cls-6">
      <path class="cls-3" d="m203.45,55.52c-1.1-.42-1.94-1.39-2.17-2.55-.02-.12-.04-.25-.06-.37-.64-.49-1.09-1.21-1.25-2.01-.25-1.18.06-2.41.37-3.55.65-2.44,1.14-4.9,1.97-7.29,1.59-4.56,4.02-8.79,6.73-12.77.82-1.21,1.82-2.57,3.34-2.9.64-.14,1.3-.04,1.91.22.18.08.35.17.52.29.84.56,1.37,1.52,1.47,2.51,1.06.81,1.58,2.29,1.23,3.6-.43,1.56-1.67,2.8-2.55,4.11-3.52,5.18-5.8,11.25-6.75,17.43-.07.48-.17.91-.36,1.36-.68,1.65-2.74,2.54-4.4,1.92Z"/>
      <path class="cls-3" d="m306.45,57.02c0,31.35-25.42,56.77-56.77,56.77-19.28,0-36.32-9.62-46.58-24.32,6.82,2.9,14.32,4.5,22.2,4.5,31.35,0,56.77-25.42,56.77-56.78,0-12.05-3.76-23.24-10.18-32.43,20.32,8.64,34.56,28.78,34.56,52.26Z"/>
      <path class="cls-3" d="m28.04,176.59c-1.31,3.17-5.26,4.88-8.45,3.68-2.12-.8-3.73-2.67-4.18-4.89-.05-.23-.09-.47-.11-.7-1.22-.96-2.09-2.34-2.41-3.89-.46-2.26.13-4.62.71-6.81,1.26-4.68,2.2-9.4,3.8-13.99,3.06-8.77,7.71-16.89,12.91-24.54,1.58-2.32,3.51-4.92,6.42-5.56,1.24-.27,2.51-.08,3.66.42.35.15.69.33,1.01.55,1.6,1.08,2.63,2.91,2.84,4.82,2.03,1.57,3.02,4.43,2.34,6.92-.82,3-3.19,5.37-4.9,7.89-6.75,9.95-11.12,21.61-12.95,33.49-.14.92-.33,1.74-.69,2.61Z"/>
      <path class="cls-3" d="m48.37,111.47c-2.32-3.72-.25-7.37,2.69-9.95,2.77-2.43,5.87-4.56,9.22-6.1,2.99-1.38,6.4-2.59,9.58-1.11,1.15.54,2.04,1.46,2.65,2.56.19.33.34.68.47,1.05.18.53.28,1.04.31,1.53.72.53,1.3,1.22,1.74,2.01.18.33.34.68.46,1.05,1.37,4.04-1.69,7.03-4.8,9.07-1.72,1.13-3.55,2.08-5.32,3.11-1.12.65-2.17,1.41-3.24,2.14-.77.53-1.56,1.04-2.38,1.48-.18.1-.37.19-.55.28-2.86,1.33-6.66.09-8.31-2.54-.62-1-.93-1.99-.99-2.95-.61-.45-1.13-1-1.53-1.63Z"/>
      <path class="cls-3" d="m208.75,174.69c0,57.58-46.68,104.25-104.25,104.25-30.6,0-58.12-13.18-77.19-34.17,15.48,9.12,33.53,14.35,52.8,14.35,57.58,0,104.25-46.68,104.25-104.25,0-26.98-10.25-51.56-27.06-70.08,30.79,18.12,51.45,51.6,51.45,89.9Z"/>
    </g>
    <g id="shadow">
      <g id="shadow-2" data-name="shadow" class="cls-2">
        <path class="cls-3" d="m217.51,30.7c-.43,1.56-1.67,2.8-2.55,4.11-3.52,5.18-5.8,11.25-6.75,17.43-.07.48-.17.91-.36,1.36-.68,1.65-2.74,2.54-4.4,1.92-1.1-.42-1.94-1.39-2.17-2.55-.02-.12-.04-.25-.06-.37-.64-.49-1.09-1.21-1.25-2.01-.25-1.18.06-2.41.37-3.55.65-2.44,1.14-4.9,1.97-7.29,1.59-4.56,4.02-8.79,6.73-12.77.82-1.21,1.82-2.57,3.34-2.9.64-.14,1.3-.04,1.91.22.18.08.35.17.52.29.84.56,1.37,1.52,1.47,2.51,1.06.81,1.58,2.29,1.23,3.6Z"/>
        <path class="cls-3" d="m46.58,132.6c-.82,3-3.19,5.37-4.9,7.89-6.75,9.95-11.12,21.61-12.95,33.49-.14.92-.33,1.74-.69,2.61-1.31,3.17-5.26,4.88-8.45,3.68-2.12-.8-3.73-2.67-4.18-4.89-.05-.23-.09-.47-.11-.7-1.22-.96-2.09-2.34-2.41-3.89-.46-2.26.13-4.62.71-6.81,1.26-4.68,2.2-9.4,3.8-13.99,3.06-8.77,7.71-16.89,12.91-24.54,1.58-2.32,3.51-4.92,6.42-5.56,1.24-.27,2.51-.08,3.66.42.35.15.69.33,1.01.55,1.6,1.08,2.63,2.91,2.84,4.82,2.03,1.57,3.02,4.43,2.34,6.92Z"/>
        <path class="cls-3" d="m75.49,102.51c1.37,4.04-1.69,7.03-4.8,9.07-1.72,1.13-3.55,2.08-5.32,3.11-1.12.65-2.17,1.41-3.24,2.14-.77.53-1.56,1.04-2.38,1.48-.18.1-.37.19-.55.28-2.86,1.33-6.66.09-8.31-2.54-.62-1-.93-1.99-.99-2.95-.61-.45-1.13-1-1.53-1.63-2.32-3.72-.25-7.37,2.69-9.95,2.77-2.43,5.87-4.56,9.22-6.1,2.99-1.38,6.4-2.59,9.58-1.11,1.15.54,2.04,1.46,2.65,2.56.19.33.34.68.47,1.05.18.53.28,1.04.31,1.53.72.53,1.3,1.22,1.74,2.01.18.33.34.68.46,1.05Z"/>
      </g>
      <path class="cls-1" d="m46.58,132.6c-.82,3-3.19,5.37-4.9,7.89-6.75,9.95-11.12,21.61-12.95,33.49-.14.92-.33,1.74-.69,2.61-1.31,3.17-5.26,4.88-8.45,3.68-2.12-.8-3.73-2.67-4.18-4.89-.05-.23-.09-.47-.11-.7-.24-2.05.3-4.15.82-6.11,1.25-4.69,2.2-9.41,3.8-14,3.05-8.76,7.71-16.88,12.91-24.53,1.58-2.33,3.51-4.92,6.42-5.56,1.24-.27,2.5-.08,3.66.42.35.15.68.33,1.01.55.11.07.22.15.32.23,2.03,1.57,3.02,4.43,2.34,6.92Z"/>
      <path class="cls-1" d="m70.69,111.58c-1.72,1.13-3.55,2.08-5.32,3.11-1.12.65-2.17,1.41-3.24,2.14-.77.53-1.56,1.04-2.38,1.48-.18.1-.37.19-.55.28-2.86,1.33-6.66.09-8.31-2.54-.62-1-.93-1.99-.99-2.95-.17-2.65,1.53-5.11,3.68-7,2.77-2.43,5.87-4.55,9.22-6.1,2.98-1.37,6.4-2.59,9.57-1.1.33.15.63.34.92.55.72.53,1.3,1.22,1.74,2.01.18.33.34.68.46,1.05,1.37,4.04-1.69,7.03-4.8,9.07Z"/>
      <path class="cls-4" d="m44.06,128.02c-.82,2.99-3.19,5.37-4.89,7.88-6.76,9.96-11.13,21.61-12.95,33.49-.14.92-.33,1.75-.69,2.61-1.32,3.18-5.26,4.88-8.46,3.68-.64-.24-1.24-.58-1.77-1-1.22-.96-2.09-2.34-2.41-3.89-.46-2.26.13-4.62.71-6.81,1.26-4.68,2.2-9.4,3.8-13.99,3.06-8.77,7.71-16.89,12.91-24.54,1.58-2.32,3.51-4.92,6.42-5.56,1.24-.27,2.51-.08,3.66.42.35.15.69.33,1.01.55,1.6,1.08,2.63,2.91,2.84,4.82.08.78.03,1.58-.18,2.34Z"/>
      <path class="cls-1" d="m217.51,30.7c-.43,1.56-1.67,2.8-2.55,4.11-3.52,5.18-5.8,11.25-6.75,17.43-.07.48-.17.91-.36,1.36-.68,1.65-2.74,2.54-4.4,1.92-1.1-.42-1.94-1.39-2.17-2.55-.02-.12-.04-.25-.06-.37-.12-1.07.15-2.16.43-3.17.65-2.44,1.14-4.9,1.97-7.29,1.59-4.56,4.02-8.79,6.73-12.78.82-1.21,1.82-2.56,3.34-2.89.64-.14,1.3-.04,1.91.22.18.08.35.17.52.28.05.04.11.07.16.13,1.06.81,1.58,2.29,1.23,3.6Z"/>
      <path class="cls-4" d="m216.2,28.31c-.43,1.56-1.67,2.8-2.55,4.11-3.52,5.18-5.8,11.25-6.75,17.43-.07.48-.17.91-.36,1.36-.68,1.66-2.74,2.54-4.4,1.92-.34-.13-.65-.3-.92-.53-.64-.49-1.09-1.21-1.25-2.01-.25-1.18.06-2.41.37-3.55.65-2.44,1.14-4.9,1.97-7.29,1.59-4.56,4.02-8.79,6.73-12.77.82-1.21,1.82-2.57,3.34-2.9.64-.14,1.3-.04,1.91.22.18.08.35.17.52.29.84.56,1.37,1.52,1.47,2.51.05.41.03.82-.08,1.21Z"/>
      <path class="cls-4" d="m68.17,107c-1.72,1.13-3.54,2.08-5.32,3.11-1.12.65-2.17,1.41-3.23,2.14-.78.53-1.56,1.04-2.39,1.48-.18.1-.36.19-.55.28-2.17,1-4.88.53-6.78-.91-.61-.45-1.13-1-1.53-1.63-2.32-3.72-.25-7.37,2.69-9.95,2.77-2.43,5.87-4.56,9.22-6.1,2.99-1.38,6.4-2.59,9.58-1.11,1.15.54,2.04,1.46,2.65,2.56.19.33.34.68.47,1.05.18.53.28,1.04.31,1.53.25,3.28-2.41,5.77-5.12,7.55Z"/>
    </g>
  </g>
</svg>