<?xml version="1.0" encoding="UTF-8"?>
<svg id="Layer_2" data-name="Layer 2" xmlns="http://www.w3.org/2000/svg" viewBox="0 0 418.36 407.87">
  <defs>
    <style>
      .cls-1 {
        stroke: #fff;
        stroke-linecap: round;
        stroke-width: 13px;
      }

      .cls-1, .cls-2, .cls-3, .cls-4 {
        fill: #54a5d6;
      }

      .cls-1, .cls-4 {
        stroke-linejoin: round;
      }

      .cls-2 {
        opacity: .48;
      }

      .cls-2, .cls-3, .cls-5, .cls-6 {
        stroke-width: 0px;
      }

      .cls-5 {
        fill: #c1e5f9;
      }

      .cls-6 {
        fill: #8ecaef;
      }

      .cls-4 {
        opacity: .46;
        stroke: #2d84b6;
        stroke-width: 12px;
      }
    </style>
  </defs>
  <g id="Ice">
    <path id="ice-melt" class="cls-5" d="m67.42,243.27c-20.49,5.64-43.65,14.04-59.41,28.74-4.31,4.02-7.77,9.37-7.99,15.26-.28,7.44,4.65,14.18,10.53,18.75,16.35,12.71,37.31,19.01,49.95,36.39,4.18,5.75,5.95,14.16,1.64,19.81-1.39,1.82-3.28,3.2-4.67,5.01-7.32,9.53,3.19,24.69,11.18,30.23,20.37,14.13,51.1,10.79,74.03,7.62,15.55-2.15,33.65-5.55,44.71-17.78,15.28-16.89,5.97-40.33,17.21-58.08,12.08-19.08,43.72-17.9,61.64-9.9,10.26,4.58,19.21,11.76,26.44,20.31,8.95,10.58,15.63,20.45,29.42,25.33,16.76,5.93,40.13,2.05,55.12-7.37,6.47-4.07,11.89-10.29,13.56-17.75,1.54-6.86-.18-14.04-2.67-20.61-4.66-12.31-11.98-23.37-20.2-33.58-7.41-9.21-17.68-17.23-24.26-26.93,0,0-21.64-32.1,21.64-25.84,43.29,6.26,51.53-13.61,51.53-11.92s8.25-13.77-13.4-17.9c-21.64-4.12-128.83,0-128.83,0l-207.17,40.2Z"/>
    <path id="shadow" class="cls-2" d="m64.33,279.9c0,17.05,28.43,14.64,39.18,14.3,36.04-1.13,72.1-1.24,108.15-1.07,18.03.08,36.05.24,54.08.37,14.81.11,35.69,5.19,44.01-10.08,6.58-12.08,14-23,21.6-34.48,3.57-5.39,1.21-13.09,6.08-17.83,3.38-3.29,16.22-10.73,16.39-16.51.26-8.65-32.13-5.48-36.68-4.6,0,0-252.82,48.86-252.82,48.86,0,0,0,20.95,0,21.05Z"/>
    <path id="ice1" class="cls-3" d="m309.43,0h-176.26c-4.84,0-9.31,1.54-12.97,4.15l-62.23,42.68,25.83,17.73s14.72-2.16,27.01-4.33v138.38c0,12.35,10.01,22.36,22.36,22.36h132.37v13.73l10.95,38.63,48.57-58.75h0c4.15-4.06,6.72-9.72,6.72-15.98V22.36c0-12.35-10.01-22.36-22.36-22.36Z"/>
    <g id="ice2">
      <rect class="cls-6" x="46.9" y="43.77" width="236.13" height="236.13" rx="22.36" ry="22.36"/>
      <path class="cls-4" d="m84.93,70.31c-6.04-.23-10.54,3.97-11.14,12.05.44-8.12,4.76-11.33,11.14-12.05Z"/>
      <path class="cls-1" d="m81.04,67.28c-6.04-.23-10.54,3.97-11.14,12.05.44-8.12,4.76-11.33,11.14-12.05Z"/>
      <path class="cls-4" d="m71.17,102.8c-1.49,14.43-1.8,29.07.28,43.46-2.26-14.37-1.77-29.04-.28-43.46Z"/>
      <path class="cls-1" d="m67.28,99.77c-1.49,14.43-1.8,29.07.28,43.46-2.26-14.37-1.77-29.04-.28-43.46Z"/>
    </g>
  </g>
</svg>