<?xml version="1.0" encoding="UTF-8"?>
<svg id="Layer_2" data-name="Layer 2" xmlns="http://www.w3.org/2000/svg" viewBox="0 0 316.55 158.3">
  <defs>
    <style>
      .cls-1 {
        fill: #f9f4dc;
      }

      .cls-1, .cls-2, .cls-3 {
        stroke-width: 0px;
      }

      .cls-2 {
        fill: #fbd940;
      }

      .cls-3 {
        fill: #f4f0c9;
      }

#Lemon:hover #Fill-Lemon .cls-2 {
  fill: orange;
}

    </style>
  </defs>
  <g id="Lemon">
    <path id="main-lemon" class="cls-2" d="m1.31.16C-.3.17-.01,27.73.08,29.89c1.07,24.7,5.28,50.78,18.74,71.99,12.07,19.01,30.85,33.28,51.38,42.1,38.19,16.41,80.87,15.49,121.51,12.76,25.61-1.73,53.22-7.35,74.58-22.37,14.81-10.41,27.09-24.34,35.7-40.25,9.83-18.19,12.3-39.72,14.03-60.11.23-2.68,1.51-33.84-1-33.84,0,0-313.24,0-313.71,0Z"/>
    <path id="Lemonfill1" class="cls-3" d="m316.02,34.28c-1.72,20.39-4.19,41.92-14.03,60.11-8.6,15.91-20.89,29.84-35.69,40.25-21.37,15.02-48.97,20.64-74.58,22.37-28.7,1.94-58.35-.04-84.75-12.22-24.21-11.17-45.96-27.65-63.18-48.01C23.3,72.56,9.28,42.92,3.55,11.73c-.28-1.56-.88-3.67-1.07-5.67L1.31.16l2.08-.02,2.76-.03h.01L14.31.01h1.43s-.06.11-.06.11c.44.04.82.06,1.13.06,18.44.01,36.87.03,55.3.05,25.66.02,51.32.04,76.98.06,26.39.02,52.78.05,79.17.07,20.6.02,41.21.04,61.81.05,8.32.01,16.63.02,24.95.02,2.51,0,1.23,31.17,1,33.85Z"/>
    <path id="Lemonfil2" class="cls-1" d="m301.58,31.21c-1.59,18.47-3.73,37.31-12.56,53.88-8.01,15.02-17.01,28.16-30.67,38.69-6.46,4.99-13.53,9.2-21.01,12.46-17.61,7.68-37,10.06-56.07,9.75-19.47-.32-38.61-2.88-57-9.44-4.2-1.5-8.34-3.18-12.39-5.05-21.97-10.14-41.71-25.09-57.33-43.57C35.94,65.95,23.22,39.05,18.02,10.75c-.25-1.42-.8-3.33-.97-5.15L15.98.25l1.89-.02s2.5-.03,2.51-.03l7.4-.09h1.3s-.05.1-.05.1c.4.04.74.05,1.03.05,16.73,0,33.46.03,50.18.05,23.29.02,46.57.04,69.86.05,23.95.02,47.9.05,71.85.06,18.69.02,37.4.04,56.09.05,7.55,0,15.09.02,22.64.02,2.28,0,1.12,28.29.91,30.72Z"/>
    <g id="Fill-Lemon">
      <path class="cls-2" d="m143.05,15.1c5.3-3.25,11.27,1.18,9.68,7.2l-11.75,44.43-10.79,40.82c-2.4,9.08-12.9,13.49-19.84,8.33l-22.35-16.62-22.35-16.62c-6.94-5.16-5.74-16.48,2.26-21.4l35.98-22.09,39.16-24.04Z"/>
      <path class="cls-2" d="m158.9,27.07c2.28-5.79,9.71-5.84,12.06-.08l29.54,46.02,26,42.27c3.55,8.7-2.18,18.54-10.83,18.59l-27.85.18s-27.83.18-27.85.18c-4.94.03-9.14-3.3-10.99-7.76-1.63-3.94-.91-8.3-.16-12.35.82-4.41,1.36-8.84,1.93-13.29,2.4-18.73,4.52-37.44,6.4-56.23l.04-.36,1.72-17.19Z"/>
      <path class="cls-2" d="m186.56,14.54c-6.04-1.49-10.37,4.55-7.03,9.8l24.7,38.75,22.7,35.61c5.05,7.92,16.39,8.93,21.43,1.9l16.24-22.63,16.24-22.63c5.04-7.03.46-17.45-8.66-19.7l-41-10.1-44.62-11Z"/>
      <path class="cls-2" d="m274.97,30.55l-40.96-10.26-44.57-11.18c-4.39-1.1-6.12-5.3-4.64-8.68h104.76l2.29,16.78c1.16,8.57-7.77,15.63-16.88,13.34Z"/>
      <path class="cls-2" d="m137.62,10.04l-41.6,19.54-38.21,17.96c-8.5,3.99-18.63-1.22-19.13-9.85l-1.63-27.8-.55-9.46h103.87c2.27,3.04,1.43,7.65-2.75,9.61Z"/>
    </g>
  </g>
</svg>