<?xml version="1.0" encoding="UTF-8"?>
<svg id="Layer_2" data-name="Layer 2" xmlns="http://www.w3.org/2000/svg" viewBox="0 0 271.79 270.66">
  <defs>
    <style>
      .cls-1 {
        fill: none;
        stroke: #7c4227;
        stroke-linecap: round;
        stroke-miterlimit: 10;
        stroke-width: 7px;
      }

      .cls-2 {
        fill: #3a231b;
      }

      .cls-2, .cls-3, .cls-4, .cls-5 {
        stroke-width: 0px;
      }

      .cls-3 {
        fill: #dda57e;
      }

      .cls-4 {
        fill: #de1f26;
      }

      .cls-5 {
        fill: #b05d33;
      }
    </style>
  </defs>
  <g id="Raindeer">
    <g id="antler">
      <path class="cls-2" d="m79.57,42.24c-1.41,1.09-2.4,2.71-2.63,4.62l-3.83,30.55-8.43-10.85-11.19-14.39.13-1.02.21-1.75.66-5.3,4.54-36.27c.48-3.82-2.22-7.29-6.04-7.77-1.91-.24-3.73.32-5.13,1.42s-2.4,2.71-2.63,4.62l-3.83,30.55L21.22,10.66c-1.18-1.52-2.86-2.41-4.63-2.63s-3.62.23-5.14,1.41c-3.03,2.36-3.58,6.73-1.22,9.77l22.83,29.37-25.24-3.16c-1.91-.24-3.73.32-5.13,1.42-1.41,1.09-2.4,2.71-2.64,4.62-.47,3.81,2.23,7.28,6.04,7.77l36.29,4.54,2.76.35,19.62,25.23-25.24-3.16c-1.91-.24-3.73.32-5.14,1.41s-2.39,2.72-2.63,4.63c-.48,3.8,2.23,7.28,6.04,7.77l36.29,4.54,2.76.35,17.87,22.98c2.36,3.03,6.73,3.58,9.77,1.22s3.58-6.73,1.22-9.77l-9.32-11.99-11.19-14.39.13-1.02.21-1.75.66-5.3,4.54-36.27c.48-3.82-2.22-7.29-6.04-7.77-1.91-.24-3.73.32-5.13,1.42Z"/>
      <path class="cls-2" d="m192.85,45.78c1.35,1.16,2.25,2.84,2.38,4.75l2.21,30.71,8.99-10.39,11.93-13.78-.08-1.02-.12-1.76-.38-5.33-2.63-36.46c-.28-3.84,2.6-7.16,6.44-7.44,1.92-.14,3.7.52,5.05,1.69s2.25,2.84,2.38,4.75l2.21,30.71,21.53-24.88c1.26-1.45,2.99-2.26,4.76-2.39s3.6.42,5.06,1.68c2.9,2.51,3.22,6.91.71,9.82l-24.34,28.13,25.38-1.83c1.92-.14,3.7.52,5.05,1.68,1.35,1.16,2.25,2.84,2.39,4.75.27,3.83-2.61,7.16-6.44,7.44l-36.48,2.63-2.78.2-20.92,24.17,25.38-1.83c1.92-.14,3.71.51,5.06,1.68s2.25,2.84,2.38,4.76c.28,3.82-2.61,7.16-6.44,7.44l-36.48,2.63-2.78.2-19.05,22.01c-2.51,2.9-6.91,3.22-9.82.71s-3.22-6.91-.71-9.82l9.94-11.49,11.93-13.78-.08-1.02-.12-1.76-.38-5.33-2.63-36.46c-.28-3.84,2.6-7.16,6.44-7.44,1.92-.14,3.7.52,5.05,1.68Z"/>
    </g>
    <g id="ears">
      <path class="cls-5" d="m90.1,134.15c-4.03,11.88-31.26,4.04-41.12,2.84-11.7-1.42-14.44-13.41-11.24-22.81,3.19-9.4,14.14-16.5,22.81-11.24,8.5,5.14,33.98,18.19,29.55,31.22Z"/>
      <path class="cls-3" d="m84.67,132.44c-2.78,8.2-21.58,2.79-28.38,1.96-8.07-.98-9.96-9.25-7.76-15.74s9.76-11.38,15.74-7.76,23.45,12.55,20.4,21.54Z"/>
      <path class="cls-5" d="m176.8,136.55c4.03,11.88,31.26,4.04,41.12,2.84,11.7-1.42,14.44-13.41,11.24-22.81-3.19-9.4-14.14-16.5-22.81-11.24s-33.98,18.19-29.55,31.22Z"/>
      <path class="cls-3" d="m182.22,134.84c2.78,8.2,21.58,2.79,28.38,1.96,8.07-.98,9.96-9.25,7.76-15.74s-9.76-11.38-15.74-7.76-23.45,12.55-20.4,21.54Z"/>
    </g>
    <path id="Face-upper" class="cls-5" d="m219.92,197.2c0,46.12-39.54,73.46-88.31,73.46s-88.31-27.34-88.31-73.46,39.54-93.98,88.31-93.98,88.31,47.87,88.31,93.98Z"/>
    <ellipse id="Face-lower" class="cls-3" cx="131.61" cy="231.29" rx="71.73" ry="39.37"/>
    <g id="mouth">
      <path class="cls-1" d="m97.24,241.86c6.77,2.06,14.34,2.67,21.1.25,4.28-1.53,8.32-4.43,10.91-8.29,3.18-4.75,2.96-9.96,2.96-15.44v-8.52"/>
      <path class="cls-1" d="m167.17,241.86c-6.77,2.06-14.34,2.67-21.1.25-4.28-1.53-8.32-4.43-10.91-8.29-3.18-4.75-2.96-9.96-2.96-15.44v-8.52"/>
    </g>
    <ellipse id="nose" class="cls-4" cx="132.2" cy="199.97" rx="18.06" ry="34.21" transform="translate(-68.59 330.91) rotate(-89.64)"/>
    <g id="eyes">
      <circle class="cls-2" cx="95.42" cy="166.08" r="9.6"/>
      <circle class="cls-2" cx="170.09" cy="166.98" r="9.6"/>
    </g>
  </g>
</svg>