<?xml version="1.0" encoding="UTF-8"?>
<svg id="Layer_2" data-name="Layer 2" xmlns="http://www.w3.org/2000/svg" viewBox="0 0 268.03 430.75">
  <defs>
    <style>
      .cls-1 {
        fill: #da4b9b;
        opacity: .17;
      }

      .cls-1, .cls-2, .cls-3, .cls-4, .cls-5, .cls-6, .cls-7, .cls-8 {
        stroke-width: 0px;
      }

      .cls-9 {
        fill: none;
        stroke: #1e1410;
        stroke-linecap: round;
        stroke-linejoin: round;
        stroke-width: 8px;
      }

      .cls-2 {
        fill: #1e1410;
      }

      .cls-3 {
        fill: #c1e5f9;
      }

      .cls-4 {
        fill: #8ecaef;
      }

      .cls-5 {
        fill: #b9d9e8;
      }

      .cls-6 {
        fill: #fff;
      }

      .cls-7 {
        fill: #fcfbf1;
      }

      .cls-8 {
        fill: #ffc759;
      }
    </style>
  </defs>
  <g id="snowman">
    <g id="main-snowman">
      <ellipse class="cls-7" cx="134.02" cy="312.08" rx="134.02" ry="118.67"/>
      <ellipse class="cls-7" cx="133.02" cy="153.81" rx="110.26" ry="97.63"/>
    </g>
    <g id="Scraff">
      <path class="cls-5" d="m60.93,231.68c.73.52,1.51.99,2.36,1.39,2.91,1.36,6.14,2.21,9.2,3.16,4.62,1.44,9.3,2.7,14.01,3.81,6.17,1.45,12.4,2.63,18.67,3.56,7.54,1.12,15.14,1.88,22.75,2.28,8.75.46,17.52.46,26.27-.02,9.79-.53,19.56-1.65,29.22-3.35,10.69-1.88,21.25-4.46,31.6-7.71,4.7-1.48,10.66-2.7,13.73-6.94.53-.73,1.2-2.37,2.24-2.43,0,0,17.57-1.08,20.17,10.4,1.72,7.57-10.41,10.55-15.48,11.82-9.85,2.46-19.58,5.19-29.55,7.21-19.9,4.02-40.11,6.46-60.39,7.26-4.28.17-8.52.23-12.79.11-10.23-.16-20.45-.88-30.6-2.25-5.39-.73-10.76-1.63-16.08-2.73-2.63-.54-5.25-1.13-7.85-1.77-2.37-.58-5.49-2.09-7.9-2.09,0,0-29.09-9.99-31.27-14.33s12.42-11.35,16.41-12.4c.36-.09,1.3,1.35,1.52,1.6,1.18,1.28,2.38,2.46,3.75,3.44Z"/>
      <path class="cls-3" d="m51.16,218.67c.73.52,1.51.99,2.36,1.39,2.91,1.36,6.14,2.21,9.2,3.16,4.62,1.44,9.3,2.7,14.01,3.81,6.17,1.45,12.4,2.63,18.67,3.56,7.54,1.12,15.14,1.88,22.75,2.28,8.75.46,17.52.46,26.27-.02,9.79-.53,19.56-1.65,29.22-3.35,10.69-1.88,21.25-4.46,31.6-7.71,4.7-1.48,10.66-2.7,13.73-6.94.53-.73,1.2-2.37,2.24-2.43,0,0,17.57-1.08,20.17,10.4,1.72,7.57-10.41,10.55-15.48,11.82-9.85,2.46-19.58,5.19-29.55,7.21-19.9,4.02-40.11,6.46-60.39,7.26-4.28.17-8.52.23-12.79.11-10.23-.16-20.45-.88-30.6-2.25-5.39-.73-10.76-1.63-16.08-2.73-2.63-.54-5.25-1.13-7.85-1.77-2.37-.58-5.49-2.09-7.9-2.09,0,0-29.09-9.99-31.27-14.33s12.42-11.35,16.41-12.4c.36-.09,1.3,1.35,1.52,1.6,1.18,1.28,2.38,2.46,3.75,3.44Z"/>
    </g>
    <g id="ribbins">
      <path class="cls-4" d="m133.04,243.27c-3.04,1.04-6.22,1.69-9.26,2.75-4.26,1.49-8.41,3.43-12,6.19-5.53,4.25-9.69,10.78-9.58,17.75.03,1.75.3,3.6-.46,5.18-.75,1.55-2.34,2.5-3.92,3.2-7.72,3.43-16.57,2.97-24.74,5.08l2.78,3.43c-.75.88-1.5,1.75-2.25,2.63,6.98.36,14.01-.36,20.78-2.12,4.2-1.1,8.43-2.68,11.52-5.72,4.06-4,3.89-8.4,4.68-13.55.79-5.14,3.51-9.86,7.68-13,1.91-1.44,4.52-1.42,6.79-1.72,4.65-.62,9.02-2.76,12.68-5.68,3.66,2.91,8.02,5.05,12.67,5.67,2.27.3,4.88.28,6.79,1.72,4.17,3.14,6.89,7.85,7.68,13,.79,5.15.62,9.55,4.68,13.55,3.09,3.04,7.32,4.62,11.52,5.72,6.76,1.76,13.8,2.48,20.78,2.12-.75-.88-1.5-1.75-2.25-2.63.93-1.14,1.85-2.29,2.78-3.43-8.18-2.1-17.03-1.65-24.74-5.08-1.57-.7-3.17-1.65-3.92-3.2-.76-1.58-.49-3.43-.46-5.18.12-6.97-4.05-13.51-9.58-17.75-3.59-2.76-7.74-4.7-12-6.19-3.03-1.06-6.21-1.71-9.25-2.75"/>
      <path class="cls-4" d="m148.02,244.89s29.78,10.6,42.23,2.84c6.32-3.94,11.79-10.41,9.13-18.42-2.65-8.01-12.25-10.93-19.86-9.42-4.76.96-8.99,3.29-13.52,4.78-4.61,1.51-9.16,3.28-13.65,5.13-4.05,1.66-8.05,3.46-11.94,5.48-.54.28-1.2.59-1.93.92-2.07-1.13-4.34-2.07-5.74-2.8-3.89-2.02-7.89-3.82-11.94-5.48-4.49-1.85-9.05-3.62-13.65-5.13-4.54-1.49-8.77-3.82-13.53-4.77-7.61-1.52-17.2,1.4-19.86,9.41-2.65,8.02,3.03,14.17,9.13,18.42,7.58,5.28,17.5,4.95,26.25,3.77,6.99-.94,13.8-2.9,20.49-5.11.79-.26,1.57-.53,2.34-.82m19.11-7.39c2.63-1.29,5.33-2.44,8.06-3.52,3.02-1.19,6.09-2.34,9.18-3.34,3.05-.98,5.91-2.46,9.1-3.13,5.09-1.06,11.41.48,13.01,5.21,1.61,4.72-2.3,8.51-6.45,11.17-5.15,3.3-11.75,3.31-17.54,2.79-4.63-.41-9.12-1.44-13.53-2.62-1.75-.47-3.4-1-5.07-1.63-.19-.08-.44-.18-.73-.3-.92-.37-1.93-.8-2.98-.43.94-1.81,5.07-3.28,6.95-4.2Zm-23.58,4.1c-.26.1-.49.2-.66.26-1.49.57-2.97,1.05-4.53,1.47-3.95,1.05-7.96,1.97-12.11,2.34-5.18.47-11.08.46-15.69-2.5-3.71-2.38-7.21-5.77-5.78-10,1.44-4.22,7.09-5.6,11.65-4.65,2.85.59,5.41,1.92,8.14,2.8,2.77.89,5.51,1.92,8.22,2.99,2.44.96,4.86,1.99,7.21,3.14,1.68.83,5.38,2.14,6.22,3.76-.94-.33-1.85.06-2.67.39Z"/>
    </g>
    <g id="eyes">
      <ellipse class="cls-2" cx="97.48" cy="134.88" rx="9.62" ry="12.12"/>
      <ellipse class="cls-2" cx="171.63" cy="134.88" rx="9.62" ry="12.12"/>
    </g>
    <path id="snoeflake-button" class="cls-6" d="m152.33,249.15l-10.2-5.89,10.2-5.89c.91-.53,1.22-1.69.7-2.6l-.29-.5c-.53-.91-1.69-1.22-2.6-.7l-10.2,5.89v-11.78c0-1.05-.86-1.91-1.91-1.91h-.58c-1.05,0-1.91.86-1.91,1.91v11.78l-10.2-5.89c-.91-.52-2.08-.21-2.6.7l-.29.5c-.52.91-.21,2.08.7,2.6l10.2,5.89-10.2,5.89c-.91.53-1.22,1.69-.7,2.6l.29.5c.52.91,1.69,1.22,2.6.7l10.2-5.89v11.78c0,1.05.86,1.91,1.91,1.91h.58c1.05,0,1.91-.85,1.91-1.91v-11.78l10.2,5.89c.91.53,2.08.21,2.6-.7l.29-.5c.52-.91.21-2.08-.7-2.6Z"/>
    <path id="nose" class="cls-8" d="m153.28,161.91l-52.25-4.79-2.7-.93c-1.89-.65-2.33-2.36-.79-3.07l19.56-9.06,2.62-1.21,6.76-3.14,15.4-7.13c1.55-.71,3.91.1,4.26,1.47l.99,3.87,2,7.79,2.05,8,.09.36,2.01,7.84Z"/>
    <path id="main-hat" class="cls-5" d="m197.18,100.41l-12.84-4.14-16.85-5.42-13.87-4.47-24.55-7.91-14.7-4.73-4.31-1.39c-3.03-.97-3.98-4.51-1.71-6.36l28.78-23.54,3.86-3.16,9.96-8.15,22.67-18.54c2.27-1.86,6.05-.64,6.81,2.19l2.15,8.01,4.33,16.13h0s4.44,16.58,4.44,16.58l.2.75,4.36,16.22,6.37,23.75c.76,2.83-2.08,5.15-5.1,4.18Z"/>
    <g id="Hat">
      <path class="cls-6" d="m195.91,72.48c-1.53,1.19-3.47,1.9-5.56,1.9-5.03,0-9.11-4.08-9.11-9.11s4.08-9.1,9.11-9.1c.41,0,.81.03,1.2.09l4.36,16.22Z"/>
      <path class="cls-6" d="m154.28,38.18c0,5.03-4.08,9.1-9.1,9.1-3.49,0-6.52-1.96-8.05-4.83l3.86-3.16,9.96-8.15c2.03,1.68,3.33,4.21,3.33,7.04Z"/>
      <circle class="cls-6" cx="152.28" cy="67.23" r="9.1"/>
      <circle class="cls-4" cx="179.52" cy="7.77" r="7.77"/>
      <path class="cls-6" d="m186.91,38.93h0c-1.55,1.24-3.52,1.98-5.67,1.98-5.02,0-9.1-4.07-9.1-9.1s4.08-9.1,9.1-9.1c.46,0,.9.03,1.34.09l4.33,16.13Z"/>
      <path class="cls-6" d="m185.67,91.53c0,1.74-.49,3.36-1.33,4.74l-16.85-5.42c.34-4.71,4.28-8.42,9.07-8.42,5.03,0,9.11,4.07,9.11,9.1Z"/>
      <path class="cls-6" d="m132.3,71.52c0,2.79-1.25,5.28-3.23,6.95l-14.7-4.73c-.18-.71-.28-1.45-.28-2.22,0-5.02,4.08-9.1,9.1-9.1s9.11,4.08,9.11,9.1Z"/>
    </g>
    <g id="Cheeks">
      <ellipse class="cls-1" cx="59.41" cy="147" rx="20.38" ry="20.71"/>
      <ellipse class="cls-1" cx="216.29" cy="136.64" rx="20.38" ry="20.71"/>
    </g>
    <g id="buttons">
      <ellipse class="cls-2" cx="135.4" cy="307.42" rx="15.1" ry="15.34"/>
      <ellipse class="cls-2" cx="135.4" cy="362.99" rx="15.1" ry="15.34"/>
    </g>
    <g id="mouth">
      <path class="cls-9" d="m82.54,180.27s63.32,17.86,113.37-21.54"/>
      <path class="cls-9" d="m188.57,147s4.44,15.08,21.08,17.16"/>
    </g>
  </g>
</svg>