<?xml version="1.0" encoding="utf-8"?>
<!-- Generator: Adobe Illustrator 28.0.0, SVG Export Plug-In . SVG Version: 6.00 Build 0)  -->
<svg version="1.1" id="snowflake-icon" xmlns="http://www.w3.org/2000/svg" xmlns:xlink="http://www.w3.org/1999/xlink" x="0px"
	 y="0px" viewBox="0 0 338 315" style="enable-background:new 0 0 338 315;" xml:space="preserve">
<style type="text/css">
	.st0{fill:#2C84B6;stroke:#2D84B6;stroke-width:4;stroke-miterlimit:10;}
	.st1{fill:#C1E5F9;stroke:#C1E5F9;stroke-width:4;stroke-miterlimit:10;}
	.st2{fill:#8ECAEF;stroke:#8FC9EE;stroke-width:0.5;stroke-miterlimit:10;}
</style>
<defs>
	<script>const vectorGraphic = document.querySelector(&apos;#Snowflake&apos;);
    console.log(vectorGraphic);

    function logThisId() {
    console.log(this);
    console.log(&apos;you touched the&apos;, this.id);
}

    vectorGraphic.addEventListener(&apos;click&apos;, logThisId);
		</script>
</defs>
<g>
	<path class="st0" d="M172.8,39.2L172.8,39.2c3.7,0,6.6,3,6.6,6.6v215.5c0,3.7-3,6.6-6.6,6.6l0,0c-3.7,0-6.6-3-6.6-6.6V45.9
		C166.2,42.2,169.2,39.2,172.8,39.2z"/>
	<path class="st0" d="M73.8,96.4L73.8,96.4c1.8-3.2,5.9-4.3,9.1-2.4l186.6,107.7c3.2,1.8,4.3,5.9,2.4,9.1v0
		c-1.8,3.2-5.9,4.3-9.1,2.4L76.2,105.5C73,103.7,71.9,99.6,73.8,96.4z"/>
	<path class="st0" d="M271.9,96.4L271.9,96.4c1.8,3.2,0.7,7.2-2.4,9.1L82.8,213.2c-3.2,1.8-7.2,0.7-9.1-2.4l0,0
		c-1.8-3.2-0.7-7.2,2.4-9.1L262.8,94C266,92.2,270,93.2,271.9,96.4z"/>
	<path class="st1" d="M172.8,18L172.8,18c3.7,0,6.6,3,6.6,6.6l0,0c0,3.7-3,6.6-6.6,6.6l0,0c-3.7,0-6.6-3-6.6-6.6l0,0
		C166.2,21,169.2,18,172.8,18z"/>
	<path class="st1" d="M289.2,84L289.2,84c1.9,3.1,0.9,7.2-2.3,9.1l0,0c-3.1,1.9-7.2,0.9-9.1-2.3l0,0c-1.9-3.1-0.9-7.2,2.3-9.1l0,0
		C283.3,79.9,287.3,80.9,289.2,84z"/>
	<path class="st1" d="M290.9,220.4L290.9,220.4c-1.8,3.2-5.9,4.3-9,2.5l0,0c-3.2-1.8-4.3-5.9-2.5-9l0,0c1.8-3.2,5.9-4.3,9-2.5l0,0
		C291.5,213.2,292.7,217.2,290.9,220.4z"/>
	<path class="st1" d="M172,289.2L172,289.2c-3.7,0-6.6-3-6.6-6.7v0c0-3.7,3-6.6,6.7-6.6l0,0c3.7,0,6.6,3,6.6,6.7v0
		C178.7,286.3,175.7,289.2,172,289.2z"/>
	<path class="st1" d="M55.5,221.5L55.5,221.5c-1.8-3.2-0.8-7.2,2.4-9.1l0,0c3.2-1.8,7.2-0.8,9.1,2.4l0,0c1.8,3.2,0.8,7.2-2.4,9.1
		l0,0C61.4,225.8,57.3,224.7,55.5,221.5z"/>
	<path class="st1" d="M53.8,88.6L53.8,88.6c1.8-3.2,5.8-4.4,9-2.6l0,0c3.2,1.8,4.4,5.8,2.6,9l0,0c-1.8,3.2-5.8,4.4-9,2.6l0,0
		C53.2,95.9,52.1,91.8,53.8,88.6z"/>
</g>
<g>
	<path class="st1" d="M437.3-17.1l-1-1.7l-26.6-45.8c-0.3-0.5-0.7-0.9-1.2-1.2c-1-0.6-2.3-0.6-3.4,0c-1.6,0.9-2.2,3-1.2,4.6
		l24.6,42.4l-49,0.1c-1.9,0-3.4,1.5-3.4,3.4c0,1.2,0.7,2.4,1.7,2.9c0.5,0.3,1.1,0.4,1.7,0.4l53-0.1h2C437-12,438.6-14.9,437.3-17.1
		L437.3-17.1z"/>
	<path class="st1" d="M431.4-17.1l1-1.7L459-64.6c0.3-0.5,0.7-0.9,1.2-1.2c1-0.6,2.3-0.6,3.4,0c1.6,0.9,2.2,3,1.2,4.6l-24.6,42.4
		l49,0.1c1.9,0,3.4,1.5,3.4,3.4c0,1.2-0.7,2.4-1.7,2.9c-0.5,0.3-1.1,0.4-1.7,0.4l-53-0.1h-2C431.7-12,430.1-14.9,431.4-17.1
		L431.4-17.1z"/>
	<path class="st1" d="M434.2-18.8h2l53,0.3c0.6,0,1.2,0.2,1.7,0.5c1,0.6,1.7,1.7,1.7,2.9c0,1.9-1.5,3.4-3.4,3.4L440-12l24.3,42.6
		c0.9,1.6,0.4,3.7-1.3,4.6c-1.1,0.6-2.4,0.6-3.4,0c-0.5-0.3-0.9-0.7-1.2-1.2l-26.2-46l-1-1.7C430-16,431.6-18.8,434.2-18.8
		L434.2-18.8z"/>
	<path class="st1" d="M434-18.8h-2l-53,0.3c-0.6,0-1.2,0.2-1.7,0.5c-1,0.6-1.7,1.7-1.7,2.9c0,1.9,1.5,3.4,3.4,3.4l49-0.3l-24.3,42.6
		c-0.9,1.6-0.4,3.7,1.3,4.6c1.1,0.6,2.4,0.6,3.4,0c0.5-0.3,0.9-0.7,1.2-1.2L436-12l1-1.7C438.3-16,436.6-18.8,434-18.8L434-18.8z"/>
	<circle class="st2" cx="469.3" cy="-77.1" r="5.4"/>
	<circle class="st2" cx="503" cy="-15.1" r="5.4"/>
	<circle class="st2" cx="469.3" cy="43.9" r="5.4"/>
	<circle class="st2" cx="399.9" cy="44.4" r="5.4"/>
	<circle class="st2" cx="365.4" cy="-15.3" r="5.4"/>
	<circle class="st2" cx="400.7" cy="-75.4" r="5.3"/>
</g>
</svg>
